<svg xmlns="http://www.w3.org/2000/svg" viewBox="0 0 777.74 251.03">
  <path
    d="M321.84,164.39v43c0,39.1-.2,43.7-1.8,49.1-3.5,11-10.4,18.6-21.9,24l-5.8,2.7-29.6.5c-24.3.4-29.9.8-31.5,2-1,.8-12.6,10.7-25.7,22-31.6,27.2-29.9,26-36.1,26s-10.7-2.5-13.3-7.2c-1.5-2.9-1.7-5.7-1.5-23.1l.2-19.7h-5.7c-8.8,0-18.3-1.8-23.9-4.5-6.5-3.2-13.7-10.9-17.2-18.3l-2.7-5.7v-69.5c0-69.1,0-69.5,2.2-74.2,4-8.8,13.1-16.9,22.4-20.2,3.8-1.3,13.6-1.5,71.9-1.5,66.6-.1,67.5-.1,70.9,2l3.4,2.1-18.3,18.3-59.8.5-59.9.5-3.5,2.7c-7.1,5.4-6.8,2.7-6.8,70.8,0,66.4-.2,63.6,5.7,69.2,4.4,4.2,7.4,4.8,22.8,4.8,20,0,18.9-1.2,19.5,21.6.4,15.4.7,17.9,2.1,18.2,1.7.3,5.7-3.1,26.9-22.9,7.4-6.9,14.8-13.4,16.5-14.5,2.7-1.7,5.6-1.9,36-2.4,45.8-.7,42.5,2.7,42.6-43.1l.1-32.4,10.9-10.4Z"
    transform="translate(-105.34 -82.67)"
    fill="#0e3c65"
  /><path
    d="M337.24,120.8l-97.42,97.42L224.09,234l-3.57,3.57a7.89,7.89,0,0,1-11.14,0L157,185.1A7.89,7.89,0,0,1,157,174l19.3-19.3a7.87,7.87,0,0,1,11.14,0l27.47,27.47,91.84-91.85a12.9,12.9,0,0,1,18.23,0l12.3,12.3A12.89,12.89,0,0,1,337.24,120.8Z"
    transform="translate(-105.34 -82.67)"
    fill="#00aa9a"
  /><path
    d="M463.14,184.35q-11.34,5.49-29.63,5.49-23.85,0-37.5-14t-13.66-37.36q0-24.87,15.35-40.33t39.86-15.46q15.18,0,25.58,3.83V109a45.36,45.36,0,0,0-23.7-6.21q-14.61,0-23.56,9.18t-9,24.85q0,15,8.45,24t22.77,8.93a48.57,48.57,0,0,0,25-6.65Z"
    transform="translate(-105.34 -82.67)"
    fill="#143d66"
  /><path
    d="M514.23,189.84q-18.5,0-29.09-10.37t-10.58-28.15q0-18.36,11-28.73t29.7-10.37q18.43,0,28.91,10.37T554.63,150q0,18.42-10.81,29.12T514.23,189.84Zm.58-60.13q-8.1,0-12.57,5.57T497.76,151q0,21.32,17.19,21.32,16.41,0,16.41-21.9Q531.36,129.72,514.81,129.71Z"
    transform="translate(-105.34 -82.67)"
    fill="#143d66"
  /><path
    d="M617.72,134.63a19.75,19.75,0,0,0-9.61-2.24,13.86,13.86,0,0,0-11.64,5.45q-4.19,5.46-4.19,14.85V188H569.44V114h22.84v13.73h.29q5.41-15,19.51-15a14.68,14.68,0,0,1,5.64.87Z"
    transform="translate(-105.34 -82.67)"
    fill="#143d66"
  /><path
    d="M676.61,134.63a19.72,19.72,0,0,0-9.61-2.24,13.85,13.85,0,0,0-11.63,5.45q-4.2,5.46-4.19,14.85V188H628.34V114h22.84v13.73h.28q5.43-15,19.52-15a14.66,14.66,0,0,1,5.63.87Z"
    transform="translate(-105.34 -82.67)"
    fill="#143d66"
  /><path
    d="M753.72,157.54H705.45q1.15,16.11,20.3,16.11a39.69,39.69,0,0,0,21.47-5.78v16.48q-10.28,5.49-26.67,5.49-17.92,0-27.82-9.94t-9.9-27.71q0-18.44,10.69-29.2a35.63,35.63,0,0,1,26.31-10.77q16.18,0,25,9.62t8.85,26.08Zm-21.17-14q0-15.9-12.87-15.9a12.25,12.25,0,0,0-9.5,4.55,20.73,20.73,0,0,0-4.88,11.35Z"
    transform="translate(-105.34 -82.67)"
    fill="#143d66"
  /><path
    d="M823.38,185.36q-7.73,4.47-22.33,4.48-17.06,0-27.6-10.34T762.9,152.84q0-18.87,11.31-29.74t30.24-10.88q13.08,0,18.93,3.47v19.37a26.06,26.06,0,0,0-16-5.35q-9.82,0-15.57,5.75t-5.74,15.86q0,9.83,5.49,15.43t15.1,5.6A30.07,30.07,0,0,0,823.38,167Z"
    transform="translate(-105.34 -82.67)"
    fill="#143d66"
  /><path
    d="M883.08,187.16q-5.07,2.68-15.25,2.68-24.14,0-24.14-25.08V130.87h-12V114h12v-16l22.76-6.5V114h16.63v16.84H866.45v29.92q0,11.57,9.18,11.56a15.49,15.49,0,0,0,7.45-2.1Z"
    transform="translate(-105.34 -82.67)"
    fill="#143d66"
  /><path
    d="M478.53,323H455.12v-42.2H412.19V323H388.85V219.4h23.34v41.34h42.93V219.4h23.41Z"
    transform="translate(-105.34 -82.67)"
    fill="#00aa9b"
  /><path
    d="M570.31,323H547.55V311.76h-.37q-8.45,13.08-22.61,13.08-25.74,0-25.73-31.15V249H521.6v42.64q0,15.68,12.43,15.68a12.29,12.29,0,0,0,9.83-4.3q3.69-4.31,3.69-11.67V249h22.76Z"
    transform="translate(-105.34 -82.67)"
    fill="#00aa9b"
  /><path
    d="M612.66,314.43h-.29V323H589.53V213.48h22.84v46.68h.29q8.45-12.93,24.06-12.94,14.31,0,22,9.83t7.74,26.89q0,18.49-9,29.7t-24.13,11.2Q619.67,324.84,612.66,314.43ZM612,283.21v7.59a17.29,17.29,0,0,0,4.12,11.85,13.39,13.39,0,0,0,10.55,4.7,14,14,0,0,0,12.1-6q4.31-6,4.3-17.1,0-9.17-3.94-14.34t-11.23-5.17a14.53,14.53,0,0,0-11.39,5.13Q612,275,612,283.21Z"
    transform="translate(-105.34 -82.67)"
    fill="#00aa9b"
  />
</svg>
